<?xml version="1.0" encoding="UTF-8"?>
<svg xmlns="http://www.w3.org/2000/svg" xmlns:xlink="http://www.w3.org/1999/xlink" width="250px" height="250px" viewBox="2 5 245 242" version="1.1">
  <g id="surface1">
    <path style="fill-rule:evenodd;fill:rgb(29.803923%,50.588238%,45.882353%);fill-opacity:1;stroke-width:1.079;stroke-linecap:round;stroke-linejoin:round;stroke:rgb(29.803923%,50.588238%,45.882353%);stroke-opacity:1;stroke-miterlimit:2.613;" d="M 18.588906 96.28162 C 18.588906 53.550025 53.550025 18.393139 96.474376 18.393139 C 139.401739 18.393139 174.359846 53.550025 174.359846 96.28162 C 174.359846 139.205971 139.398727 174.359846 96.474376 174.359846 C 53.550025 174.359846 18.588906 139.205971 18.588906 96.28162 Z M 16.257764 96.28162 C 16.257764 140.567311 52.188686 176.498233 96.474376 176.498233 C 140.567311 176.498233 176.498233 140.567311 176.498233 96.28162 C 176.498233 52.188686 140.567311 16.257764 96.474376 16.257764 C 52.188686 16.257764 16.257764 52.188686 16.257764 96.28162 Z M 16.257764 96.28162 " transform="matrix(1.296977,0,0,1.296977,0,0)" />
    <path style="fill-rule:evenodd;fill:rgb(29.803923%,50.588238%,45.882353%);fill-opacity:1;stroke-width:1.079;stroke-linecap:round;stroke-linejoin:round;stroke:rgb(29.803923%,50.588238%,45.882353%);stroke-opacity:1;stroke-miterlimit:2.613;" d="M 149.111823 109.488418 C 146.78068 111.431037 143.672489 111.431037 141.341346 113.177888 C 140.175775 114.34346 140.368531 115.509031 140.952823 117.063126 C 141.925638 118.812989 141.341346 118.617221 140.175775 119.201513 C 137.263352 120.171317 137.263352 123.279507 133.573882 122.890983 C 133.378114 122.890983 132.601067 122.50246 132.98959 123.083739 C 133.378114 123.668031 133.573882 123.276495 134.347918 123.276495 C 135.706245 123.472263 136.094769 122.887972 137.067585 122.306692 C 138.428924 121.14112 138.233156 120.752596 139.787251 119.975549 C 140.175775 119.975549 141.145579 119.782793 141.72987 119.782793 C 141.922626 120.171317 141.922626 120.171317 141.922626 120.559841 C 141.922626 121.336888 140.564299 122.110924 139.980007 122.306692 C 140.757055 122.887972 141.922626 123.665019 141.72987 124.445079 C 141.537114 124.833602 141.537114 125.026358 140.952823 125.219114 C 140.368531 125.607638 138.817448 125.607638 137.456108 124.445079 C 137.263352 124.637835 137.067585 124.053543 136.486305 124.637835 C 137.844632 125.996162 139.591483 125.607638 139.787251 125.996162 C 140.175775 126.19193 138.817448 127.938781 138.817448 128.131537 C 138.0404 130.658448 139.010204 132.793823 138.62168 135.124966 C 138.428924 137.067585 137.844632 138.0404 136.097781 139.205971 C 132.98959 141.341346 130.854215 141.922626 127.357501 142.506918 C 118.424465 143.088198 112.593597 139.980007 106.187471 135.124966 C 99.582567 130.269924 97.058668 127.743013 95.116049 125.026358 C 95.116049 123.857775 95.893097 123.080728 95.116049 121.7224 C 94.531757 122.110924 94.724513 122.887972 94.339001 123.276495 C 93.75471 124.053543 92.589138 124.442067 91.619335 124.442067 C 89.095436 123.469251 88.899668 120.364073 87.345573 118.61421 C 83.656103 115.117495 82.683287 109.87393 84.43315 105.600168 C 85.210198 104.241841 86.375769 103.076269 87.929864 102.494989 C 89.48396 102.302233 91.426579 102.302233 92.396382 104.049085 C 93.75471 105.211644 94.531757 107.157275 94.920281 108.904126 C 95.504573 109.87393 94.727525 110.650978 95.697329 111.428025 C 97.251424 111.620781 98.609751 112.012317 99.971091 111.039501 C 101.136662 111.232257 101.136662 112.397829 102.106466 112.98212 L 103.464793 113.759168 C 105.0219 114.536216 107.157275 114.536216 108.515603 113.367632 C 111.042513 110.843734 110.458222 108.124067 111.235269 105.407412 C 113.569424 103.269025 115.120507 100.353591 115.120507 97.441168 C 114.927751 95.498549 114.34346 93.751698 113.373656 91.809079 C 113.569424 90.839275 114.150704 90.062228 114.34346 89.089412 C 114.731983 89.089412 115.120507 89.089412 115.316275 88.896656 C 118.035942 88.312365 120.367085 85.981222 121.532656 83.457323 L 121.725412 83.261555 C 124.637835 83.068799 128.523073 81.903228 130.08018 78.795037 C 130.465692 77.43671 132.019787 78.406513 132.98959 78.213757 C 134.546698 78.01799 136.293549 77.240942 137.263352 76.271138 C 137.844632 76.078382 138.0404 76.463894 138.236168 76.659662 C 138.820459 78.990805 140.178787 81.12618 140.955834 83.653091 C 141.925638 85.399942 142.121406 87.146793 141.925638 88.896656 C 142.121406 91.616323 143.868257 94.33599 145.033828 97.248412 C 146.003632 100.163847 147.949263 103.269025 149.111823 106.18446 C 149.30759 107.353043 149.88887 108.322847 149.111823 109.488418 Z M 149.696114 104.244852 C 147.557727 99.389811 145.226584 95.308805 143.476721 90.261007 C 142.118394 88.511144 142.895442 86.568525 142.702686 84.625906 C 141.925638 81.909251 140.760067 79.578109 139.594495 76.662674 C 139.205971 75.885626 140.178787 75.69287 140.371543 74.915823 C 140.955834 73.557495 140.567311 72.0034 139.983019 70.449305 C 139.594495 69.672257 140.567311 69.283734 140.371543 68.506686 C 140.371543 67.148359 139.398727 66.175543 138.428924 65.594263 C 137.070596 63.651644 136.486305 62.678829 134.935221 60.931978 L 134.935221 60.543454 C 135.709257 59.959162 136.293549 58.600835 136.293549 57.435263 C 136.097781 56.269692 135.709257 55.104121 134.543686 54.327073 C 132.601067 53.161502 130.854215 54.911365 129.30012 55.688412 C 128.715829 56.076936 128.523073 56.269692 127.941793 56.269692 C 127.746025 56.076936 127.164745 56.076936 126.776221 55.881168 L 125.417894 57.242507 L 127.164745 57.823787 C 127.357501 58.019555 127.357501 58.019555 127.357501 58.212311 C 127.164745 58.408079 123.083739 61.901781 123.083739 61.901781 L 115.704799 69.283734 L 113.569424 71.42212 L 106.964519 78.996829 C 103.467805 82.882067 98.420007 89.48396 95.311817 94.339001 C 93.757722 96.477388 92.203626 98.808531 90.649531 101.136662 C 90.649531 101.33243 90.261007 101.33243 89.872483 101.33243 L 88.899668 101.33243 C 87.152817 101.720954 85.987245 102.109477 84.821674 103.275049 C 82.879055 105.214656 82.102007 107.741567 82.102007 110.265466 C 82.102007 112.208085 82.490531 113.957948 83.463347 115.897555 C 83.071811 116.87037 82.102007 117.840174 81.520728 118.617221 L 81.132204 119.005745 L 80.547912 119.397281 C 80.355156 119.785805 79.966632 120.174329 79.578109 120.562852 C 79.578109 120.755608 79.578109 120.951376 79.770865 121.144132 L 80.159388 121.144132 C 81.713484 120.755608 82.686299 119.590037 83.463347 118.424465 L 84.240394 117.647418 C 84.43315 117.647418 84.43315 117.647418 84.821674 117.840174 C 84.821674 117.840174 85.017442 118.035942 85.017442 118.228698 L 85.017442 118.812989 C 81.32496 122.50246 78.216769 124.44809 74.527299 126.776221 L 73.750251 127.164745 L 74.527299 127.164745 C 76.081394 127.357501 77.442733 126.583465 78.801061 125.61065 L 80.547912 124.836614 C 82.102007 124.059567 83.656103 122.893995 85.017442 121.532656 L 86.375769 120.562852 C 86.568525 120.562852 86.764293 120.562852 86.764293 120.755608 L 86.960061 120.951376 L 88.125632 123.279507 C 87.929864 124.445079 87.929864 125.61065 87.929864 126.583465 C 87.929864 128.911596 88.318388 131.242739 88.90268 133.573882 C 89.291204 135.905025 89.872483 138.236168 89.872483 140.567311 L 89.872483 140.955834 C 89.872483 141.72987 89.095436 142.702686 88.318388 142.898453 C 86.960061 143.091209 85.21321 143.091209 83.267579 143.091209 C 80.939448 143.091209 78.608305 143.283965 76.665686 143.675501 C 76.081394 143.868257 75.500114 144.064025 74.723067 144.256781 C 74.138775 144.449537 73.364739 144.645305 72.976216 144.645305 L 72.587692 144.645305 L 72.391924 144.841072 C 72.199168 145.033828 72.006412 145.226584 72.006412 145.422352 L 71.810644 145.422352 C 71.810644 145.810876 72.006412 146.003632 72.199168 146.003632 C 72.394936 146.1994 72.394936 146.1994 72.587692 146.1994 C 73.171983 146.1994 73.753263 146.003632 74.530311 145.810876 C 74.723067 145.615108 75.307358 145.422352 75.695882 145.422352 C 79.58112 144.645305 83.659114 144.838061 86.571537 145.226584 C 87.932876 145.033828 90.264019 145.033828 91.041067 143.088198 C 91.42959 142.314162 91.42959 141.537114 91.42959 140.760067 C 91.42959 139.983019 91.42959 139.205971 91.233823 138.428924 L 90.845299 136.486305 C 90.845299 135.320733 90.652543 134.155162 90.264019 132.98959 C 89.875495 130.854215 89.486971 128.715829 89.486971 126.583465 L 89.486971 125.414882 L 89.679727 125.414882 C 89.875495 125.222126 89.875495 125.414882 90.068251 125.607638 C 90.456775 125.803406 90.649531 125.999174 90.845299 125.999174 C 91.038055 126.19193 91.426579 126.19193 91.622346 126.19193 C 92.01087 126.19193 92.203626 126.384686 92.203626 126.583465 C 92.399394 128.523073 92.980674 130.465692 93.757722 132.215555 C 94.149257 133.573882 94.534769 134.935221 94.730537 136.293549 C 95.311817 138.428924 95.896108 140.760067 95.896108 142.898453 C 95.893097 144.277864 95.697329 145.648238 95.311817 146.976447 C 94.342013 148.723299 92.01087 148.723299 90.068251 148.919067 L 89.291204 148.919067 L 84.240394 148.527531 C 79.773876 148.139007 75.500114 147.753495 70.837829 148.527531 L 69.675269 148.723299 C 69.090978 148.723299 68.506686 148.916055 67.925406 148.723299 C 67.729638 148.527531 67.729638 148.334775 67.729638 147.946251 L 67.729638 147.557727 C 68.506686 145.810876 68.898222 144.253769 68.898222 142.702686 C 68.898222 141.537114 68.702454 140.371543 68.121174 139.594495 C 66.952591 137.263352 65.594263 135.712269 64.040168 134.543686 C 62.097549 132.601067 60.350698 130.854215 58.796603 128.911596 C 58.019555 128.911596 57.438275 128.715829 57.242507 128.715829 L 56.272704 129.688644 C 57.438275 130.854215 58.408079 131.827031 59.769418 133.185358 C 61.709025 134.158174 63.266132 136.100793 64.62446 137.456108 C 66.374323 139.398727 66.759835 141.537114 66.374323 143.868257 C 66.178555 146.587924 63.651644 147.753495 61.904793 149.696114 C 61.320501 151.054442 60.739222 152.605525 61.904793 153.966864 C 62.293317 155.520959 65.012984 155.328203 65.401507 156.490763 C 66.178555 159.598953 71.229364 161.345805 72.391924 161.345805 C 73.364739 161.541572 74.334543 162.511376 74.334543 162.511376 C 76.47293 164.068483 78.996829 163.676948 80.550924 163.484192 C 81.909251 163.291436 84.436162 164.457007 85.990257 164.261239 C 88.514156 163.288424 90.456775 163.676948 92.980674 163.484192 C 100.75115 163.484192 109.49143 163.484192 117.45165 164.457007 C 119.008757 164.261239 120.755608 165.231043 122.113936 164.649763 C 122.309704 164.068483 122.113936 163.484192 122.113936 163.092656 C 118.228698 157.075055 117.647418 150.47015 119.785805 143.865245 L 121.336888 143.865245 C 126.387698 144.449537 131.049983 143.865245 136.293549 140.757055 C 139.013215 139.398727 140.371543 135.902013 140.178787 133.57087 C 140.178787 132.016775 139.594495 130.077168 139.790263 128.520061 C 139.983019 127.743013 140.371543 126.580454 141.14859 126.19193 C 141.344358 125.996162 142.317174 125.414882 142.705697 124.634823 C 143.286977 123.080728 142.121406 122.499448 141.732882 122.306692 C 142.705697 122.110924 143.479733 120.168305 142.705697 119.002733 C 142.121406 118.421454 141.540126 116.283067 141.540126 115.701787 C 141.344358 114.728972 141.344358 113.759168 142.121406 112.98212 C 144.256781 112.009305 146.202412 111.816549 148.334775 110.843734 C 149.891882 110.262454 150.66893 108.708359 150.66893 107.347019 Z M 65.398496 152.804305 C 65.202728 153.192828 65.202728 153.581352 65.202728 154.162632 C 65.009972 154.551156 64.232924 154.162632 64.037156 153.966864 C 63.067353 153.385584 63.067353 153.774108 62.871585 152.804305 C 62.871585 152.220013 62.871585 151.635721 63.648632 151.247198 C 64.42568 150.858674 65.398496 150.473162 65.979775 151.247198 C 65.979775 151.635721 65.398496 152.220013 65.398496 152.804305 Z M 70.642061 159.213441 C 69.283734 159.213441 68.506686 158.62915 67.922394 157.075055 C 67.341115 155.328203 67.145347 153.774108 67.533871 151.831489 C 67.729638 151.635721 67.922394 151.442965 68.118162 151.635721 L 69.865013 150.858674 C 70.253537 150.665918 70.837829 150.665918 71.419109 150.858674 L 71.614876 151.250209 C 71.614876 152.223025 71.419109 152.804305 71.419109 153.774108 C 71.419109 156.105251 71.030585 156.686531 71.807632 158.824918 C 71.614876 159.406197 71.030585 159.213441 70.642061 159.213441 Z M 139.790263 74.527299 C 139.594495 74.720055 139.398727 74.915823 139.013215 74.915823 C 138.428924 74.331531 138.62168 73.943007 138.820459 73.361728 C 138.820459 73.16596 138.820459 73.16596 139.013215 73.16596 C 139.401739 73.16596 139.594495 73.361728 139.594495 73.361728 C 139.790263 73.750251 139.790263 74.138775 139.790263 74.527299 Z M 92.007858 102.106466 C 96.085853 94.727525 101.136662 88.318388 106.380227 81.517716 L 113.954936 73.16596 C 119.201513 67.341115 125.222126 61.513257 131.827031 57.04674 C 132.601067 56.658216 132.98959 55.492644 133.766638 56.269692 L 134.543686 57.04674 C 135.124966 57.628019 134.736442 59.182115 134.155162 59.766406 C 133.766638 59.959162 133.378114 60.347686 132.98959 60.73621 C 134.155162 62.094537 136.094769 64.42568 137.651876 65.979775 C 138.233156 66.564067 138.0404 67.341115 139.205971 67.922394 C 139.787251 68.118162 139.980007 68.89521 139.594495 69.47649 C 138.62168 70.837829 136.874829 70.449305 135.320733 70.837829 C 130.269924 72.0034 125.999174 73.557495 120.364073 76.27415 C 115.897555 78.801061 112.208085 81.32496 108.907138 85.598722 C 107.545799 87.152817 106.187471 88.318388 105.0219 90.065239 C 102.106466 93.950478 99.778335 97.639948 97.44418 101.717942 C 96.474376 102.883513 96.278609 103.467805 95.116049 104.633376 C 94.531757 105.214656 93.950478 104.052096 93.561954 103.660561 L 93.561954 103.467805 L 92.977662 103.467805 C 92.784906 102.883513 91.812091 102.690757 92.007858 102.106466 Z M 137.263352 73.557495 C 137.263352 74.915823 135.323745 76.081394 133.766638 76.469918 C 133.185358 76.662674 132.408311 76.662674 131.827031 76.662674 C 131.631263 76.469918 131.631263 76.469918 131.631263 76.27415 C 131.631263 75.497103 131.827031 75.108579 131.827031 74.527299 L 132.215555 74.331531 C 133.76965 73.943007 135.323745 73.554484 136.874829 73.361728 C 137.070596 73.361728 137.263352 73.361728 137.263352 73.557495 Z M 122.698227 77.246966 L 122.890983 76.858442 C 123.860787 76.469918 125.026358 75.885626 126.384686 75.497103 L 127.746025 75.108579 C 128.327305 74.720055 129.104352 74.527299 129.30012 75.108579 C 129.492876 76.858442 127.941793 79.382341 125.803406 80.355156 C 125.026358 80.547912 124.249311 80.74368 123.279507 80.936436 C 123.083739 80.74368 122.306692 81.132204 122.306692 80.547912 C 122.309704 79.578109 122.698227 78.216769 122.698227 77.246966 Z M 106.961507 112.596608 C 106.380227 112.792376 102.883513 111.431037 103.275049 111.819561 C 102.498001 110.846745 103.856329 110.461233 100.748138 109.295662 L 99.971091 109.488418 C 99.778335 109.488418 99.582567 109.684186 99.194043 109.295662 C 99.194043 108.71137 99.971091 108.907138 99.971091 108.325858 C 101.136662 105.798948 100.555382 103.663573 100.555382 101.136662 L 101.136662 99.001287 C 102.883513 97.058668 102.883513 96.8629 103.856329 95.697329 C 105.0219 94.143234 105.214656 94.143234 106.575995 92.977662 C 106.964519 92.589138 107.353043 92.589138 107.548811 92.784906 C 108.325858 93.369198 108.325858 93.757722 108.518614 94.339001 C 108.907138 96.8629 107.353043 98.612763 105.606192 99.971091 C 104.244852 101.136662 103.079281 102.690757 103.275049 104.44062 L 103.275049 104.633376 C 104.052096 104.052096 104.633376 103.856329 105.0219 103.275049 C 105.798948 100.943906 108.518614 99.971091 110.07271 98.031483 C 110.849757 96.8629 110.268477 94.923293 110.07271 93.561954 C 110.07271 93.757722 112.015329 92.59215 111.626805 92.977662 C 112.403852 93.369198 112.403852 94.146245 112.792376 94.920281 C 113.569424 97.058668 113.569424 99.194043 112.208085 101.136662 L 108.518614 105.60318 C 108.518614 108.130091 109.099894 111.042513 106.961507 112.596608 Z M 111.816549 90.065239 C 110.846745 90.453763 110.07271 90.646519 108.907138 90.065239 C 108.71137 89.872483 107.934323 89.48396 108.130091 89.095436 C 108.907138 87.734097 110.07271 86.957049 110.846745 85.791478 L 111.238281 85.598722 C 112.792376 83.656103 115.120507 82.102007 117.45165 80.74368 L 118.812989 80.355156 C 119.005745 79.963621 119.782793 79.186573 119.975549 79.963621 C 119.975549 82.294763 119.005745 84.821674 116.674602 86.568525 C 115.316275 87.541341 114.927751 87.345573 113.569424 87.541341 L 112.985132 88.511144 C 112.777317 89.143625 112.367711 89.691775 111.816549 90.065239 Z M 99.194043 103.660561 L 99.194043 105.214656 C 99.001287 106.768751 98.416995 108.71137 96.8629 109.488418 C 96.085853 109.295662 96.278609 108.130091 96.085853 107.545799 C 96.670144 105.991704 97.832704 104.826132 98.609751 103.275049 L 99.001287 103.275049 Z M 78.801061 161.933108 C 78.216769 162.710156 77.828245 162.321632 77.246966 162.321632 C 75.497103 161.933108 74.527299 161.15606 73.943007 159.213441 C 73.361728 156.493775 73.361728 153.385584 73.943007 150.665918 L 74.138775 150.473162 C 75.497103 150.280406 77.246966 150.084638 77.828245 150.473162 C 78.216769 150.665918 77.246966 155.523971 77.246966 155.523971 C 77.246966 156.493775 77.828245 159.017674 78.216769 160.379013 C 78.216769 160.376001 79.186573 161.541572 78.801061 161.933108 Z M 91.230811 158.824918 C 91.230811 160.764525 88.899668 162.31862 87.929864 162.514388 C 86.764293 162.902912 83.463347 162.707144 82.686299 162.514388 C 81.713484 162.122852 79.382341 157.659346 79.578109 155.328203 C 79.578109 153.382573 80.1624 150.473162 80.939448 150.081626 C 81.713484 149.88887 83.656103 150.081626 83.656103 150.081626 C 84.628918 150.081626 85.210198 150.277394 85.987245 150.473162 C 86.571537 150.473162 85.987245 151.247198 86.375769 151.635721 C 86.568525 152.605525 86.568525 153.57834 87.152817 154.551156 C 88.125632 156.298007 89.676716 157.267811 91.230811 157.852102 C 91.423567 158.04787 91.230811 158.62915 91.230811 158.824918 Z M 88.899668 151.442965 C 88.899668 151.247198 88.899668 151.054442 89.095436 150.858674 L 90.646519 150.858674 C 92.007858 150.858674 93.561954 151.442965 94.727525 150.084638 C 95.504573 150.084638 95.504573 150.858674 95.697329 151.635721 C 95.893097 152.415781 95.893097 152.997061 95.893097 153.966864 C 95.501561 154.551156 95.308805 155.520959 94.531757 155.909483 C 93.531836 156.298007 92.423489 156.298007 91.423567 155.909483 C 89.872483 154.93968 88.899668 153.581352 88.899668 151.442965 Z M 118.617221 144.645305 C 116.674602 151.442965 115.704799 154.743912 118.812989 161.73734 C 118.812989 161.933108 119.201513 162.902912 118.812989 163.095668 C 115.509031 162.321632 114.539227 161.933108 111.431037 161.73734 C 108.515603 161.348816 103.660561 162.125864 100.555382 162.125864 C 97.832704 162.125864 95.308805 162.321632 92.784906 162.514388 C 92.007858 162.125864 92.396382 161.15606 92.589138 160.767537 C 92.784906 159.794721 92.977662 159.409209 92.977662 158.240626 C 93.369198 157.855114 93.950478 158.04787 94.339001 157.855114 C 96.085853 157.659346 97.639948 156.105251 97.832704 154.551156 C 98.416995 152.804305 97.832704 150.861686 97.058668 149.30759 C 97.058668 148.919067 96.28162 148.530543 96.670144 148.142019 C 98.612763 144.256781 97.254436 140.178787 96.477388 136.293549 C 95.893097 133.573882 94.727525 130.661459 94.339001 127.746025 C 94.339001 127.357501 93.950478 126.776221 94.531757 126.583465 L 94.727525 126.776221 C 97.058668 129.495888 103.467805 135.127977 105.798948 137.070596 C 108.130091 139.013215 114.34346 142.702686 118.424465 143.479733 C 118.812989 143.868257 118.812989 144.256781 118.617221 144.645305 Z M 118.617221 144.645305 " transform="matrix(1.296977,0,0,1.296977,0,0)" />
    <path style="fill-rule:evenodd;fill:rgb(29.803923%,50.588238%,45.882353%);fill-opacity:1;stroke-width:1.079;stroke-linecap:round;stroke-linejoin:round;stroke:rgb(29.803923%,50.588238%,45.882353%);stroke-opacity:1;stroke-miterlimit:2.613;" d="M 135.709257 85.987245 C 136.097781 86.568525 136.293549 86.957049 136.097781 87.541341 C 135.323745 87.541341 135.127977 86.568525 134.543686 86.180001 C 133.378114 85.794489 132.408311 86.180001 131.438507 86.568525 C 128.715829 87.737108 126.387698 89.872483 123.860787 91.038055 C 123.668031 91.038055 123.279507 91.038055 123.083739 90.842287 C 123.475275 90.453763 124.252323 90.261007 124.833602 90.065239 C 127.553269 88.318388 130.08018 85.402954 133.381126 85.01443 C 134.35093 85.01443 135.127977 85.210198 135.709257 85.987245 Z M 135.516501 90.453763 C 135.323745 89.872483 135.323745 88.7039 134.543686 88.511144 C 134.35093 89.095436 134.543686 89.48396 134.35093 89.872483 C 134.158174 90.065239 133.766638 90.453763 133.185358 90.261007 C 129.884412 90.646519 127.553269 93.369198 124.833602 94.923293 C 123.860787 95.504573 122.890983 95.700341 121.92118 96.085853 C 121.725412 96.085853 121.725412 96.28162 121.92118 96.477388 C 125.026358 96.865912 127.941793 97.058668 131.049983 97.447192 L 134.35093 97.058668 C 134.543686 96.477388 133.962406 96.28162 133.962406 95.700341 C 134.543686 94.339001 134.543686 92.784906 134.155162 91.426579 C 134.543686 90.842287 135.516501 91.423567 135.516501 90.453763 Z M 133.185358 95.697329 C 132.601067 96.28162 132.019787 95.697329 131.438507 95.893097 C 130.08018 95.697329 127.941793 96.085853 126.387698 95.893097 C 126.194942 95.697329 125.999174 95.501561 126.194942 95.308805 C 126.387698 94.920281 126.968977 94.920281 127.357501 94.531757 C 129.107364 93.561954 130.661459 92.589138 132.408311 92.200614 C 132.796834 92.200614 133.185358 92.396382 133.185358 92.589138 C 133.378114 93.561954 133.185358 94.920281 133.185358 95.697329 Z M 137.263352 105.60318 C 137.263352 105.60318 137.456108 105.214656 137.651876 105.214656 C 137.844632 105.410424 137.844632 105.60318 137.844632 105.798948 C 137.844632 106.380227 137.651876 106.961507 137.651876 107.545799 C 137.263352 108.322847 137.263352 109.099894 137.263352 109.876942 L 137.263352 110.653989 C 137.844632 111.235269 138.428924 111.431037 139.205971 111.235269 L 140.567311 110.458222 C 141.72987 109.684186 142.702686 109.099894 144.838061 108.518614 L 144.838061 109.295662 C 144.838061 109.488418 142.895442 110.265466 142.895442 110.265466 C 141.341346 110.846745 139.790263 111.431037 138.428924 112.208085 C 138.0404 112.400841 137.651876 112.208085 137.263352 112.015329 L 137.070596 112.015329 C 136.486305 111.238281 136.486305 110.458222 136.486305 109.684186 C 136.486305 109.099894 136.486305 108.325858 136.682073 107.741567 C 136.874829 107.160287 137.070596 106.575995 137.070596 105.798948 Z M 91.230811 105.0219 C 92.396382 107.157275 91.230811 109.29265 91.230811 111.623793 C 91.423567 112.208085 92.784906 112.208085 92.396382 112.985132 C 92.007858 113.373656 91.619335 113.373656 91.423567 112.985132 C 90.646519 112.792376 90.453763 112.400841 90.453763 111.819561 C 90.257995 109.684186 91.812091 107.350031 90.453763 105.60318 C 90.065239 105.0219 89.288192 104.826132 88.899668 104.633376 C 87.541341 104.826132 86.957049 106.380227 86.568525 107.350031 C 85.791478 109.876942 85.598722 112.789364 87.926853 114.731983 C 89.288192 115.509031 90.842287 116.478835 91.035043 118.228698 C 91.230811 118.424465 91.619335 118.812989 92.007858 118.617221 C 92.396382 118.617221 92.396382 117.45165 92.977662 117.840174 L 93.17343 118.424465 C 92.977662 118.812989 92.977662 119.782793 92.200614 119.782793 C 91.812091 119.782793 91.423567 119.587025 91.035043 119.394269 C 90.065239 118.424465 90.842287 117.063126 89.480948 116.674602 C 87.149805 115.897555 85.59571 113.569424 85.402954 111.235269 C 85.207186 109.099894 85.402954 106.575995 87.342561 104.826132 C 88.119609 104.244852 88.896656 103.856329 89.869472 104.244852 C 90.453763 104.244852 91.038055 104.633376 91.230811 105.0219 Z M 62.486073 120.948364 C 58.212311 122.890983 57.04674 127.941793 56.850972 128.134549 L 56.850972 128.523073 L 57.239496 128.715829 C 57.435263 128.715829 61.320501 130.077168 66.175543 127.746025 C 70.837829 125.414882 71.807632 120.559841 71.807632 120.559841 L 72.0034 119.975549 L 71.614876 119.782793 C 71.419109 119.782793 66.564067 119.005745 62.486073 120.948364 Z M 62.871585 121.92118 C 65.979775 120.559841 69.47649 120.559841 70.834817 120.752596 C 70.446293 122.113936 69.087966 125.222126 65.591252 126.776221 C 62.094537 128.523073 59.182115 128.134549 58.016543 127.941793 C 58.405067 126.583465 59.766406 123.279507 62.871585 121.92118 Z M 66.756823 111.623793 C 62.486073 113.569424 60.931978 118.424465 60.931978 118.617221 L 60.73621 119.201513 L 61.320501 119.201513 C 61.320501 119.201513 65.20574 120.559841 70.060781 118.228698 C 74.915823 115.897555 75.885626 111.235269 75.885626 111.042513 L 75.885626 110.653989 L 75.497103 110.458222 C 75.304347 110.458222 70.834817 109.684186 66.756823 111.623793 Z M 67.145347 112.596608 C 70.060781 111.042513 73.361728 111.238281 74.720055 111.431037 C 74.331531 112.596608 73.16596 115.509031 69.47649 117.258894 C 66.175543 119.005745 63.067353 118.617221 62.094537 118.424465 C 62.486073 117.063126 64.040168 113.76218 67.145347 112.596608 Z M 67.145347 112.596608 " transform="matrix(1.296977,0,0,1.296977,0,0)" />
    <path style="fill-rule:evenodd;fill:rgb(29.803923%,50.588238%,45.882353%);fill-opacity:1;stroke-width:1.079;stroke-linecap:round;stroke-linejoin:round;stroke:rgb(29.803923%,50.588238%,45.882353%);stroke-opacity:1;stroke-miterlimit:2.613;" d="M 72.196156 102.494989 C 67.922394 104.244852 66.175543 109.295662 65.979775 109.488418 L 65.979775 109.876942 L 66.371311 110.07271 C 66.564067 110.265466 70.449305 111.235269 75.304347 108.907138 C 79.966632 106.768751 81.132204 102.302233 81.132204 102.106466 L 81.132204 101.717942 L 80.74368 101.525186 C 80.547912 101.33243 76.27415 100.748138 72.196156 102.494989 Z M 72.58468 103.467805 C 75.497103 102.109477 78.801061 102.302233 79.963621 102.494989 C 78.960687 104.949617 77.096375 106.94946 74.720055 108.130091 C 71.419109 109.684186 68.310918 109.488418 67.145347 109.295662 C 67.729638 107.937335 69.47649 104.826132 72.58468 103.467805 Z M 77.439722 93.561954 C 73.361728 95.311817 71.226353 100.166858 71.226353 100.359614 L 71.030585 100.943906 L 71.614876 101.136662 C 71.614876 101.136662 75.497103 102.109477 80.355156 99.971091 C 85.210198 97.639948 86.375769 93.369198 86.375769 93.17343 L 86.375769 92.784906 L 85.987245 92.59215 C 85.791478 92.589138 81.713484 91.812091 77.439722 93.561954 Z M 78.024013 94.531757 C 80.936436 93.17343 84.044626 93.369198 85.210198 93.561954 C 84.821674 94.727525 83.460335 97.447192 79.770865 99.001287 C 76.469918 100.555382 73.557495 100.359614 72.388912 100.166858 C 72.973204 99.001287 74.915823 95.697329 78.024013 94.531757 Z M 78.024013 94.531757 " transform="matrix(1.296977,0,0,1.296977,0,0)" />
    <path style="fill-rule:evenodd;fill:rgb(29.803923%,50.588238%,45.882353%);fill-opacity:1;stroke-width:1.079;stroke-linecap:round;stroke-linejoin:round;stroke:rgb(29.803923%,50.588238%,45.882353%);stroke-opacity:1;stroke-miterlimit:2.613;" d="M 85.01443 84.625906 C 80.936436 86.375769 78.605293 91.038055 78.409525 91.423567 L 78.021001 91.812091 L 78.798049 92.007858 C 78.798049 92.200614 82.683287 92.977662 87.538329 90.842287 C 92.39337 88.511144 93.558942 84.43315 93.558942 84.43315 L 93.75471 83.848859 L 93.170418 83.656103 C 92.977662 83.656103 89.288192 82.879055 85.01443 84.625906 Z M 85.402954 85.402954 C 88.511144 84.240394 91.230811 84.43315 92.396382 84.625906 C 92.007858 85.794489 90.646519 88.318388 87.152817 89.872483 C 83.656103 91.423567 80.936436 91.423567 79.578109 91.038055 C 80.355156 89.872483 82.490531 86.764293 85.402954 85.402954 Z M 85.402954 85.402954 " transform="matrix(1.296977,0,0,1.296977,0,0)" />
    <path style="fill-rule:evenodd;fill:rgb(29.803923%,50.588238%,45.882353%);fill-opacity:1;stroke-width:1.079;stroke-linecap:round;stroke-linejoin:round;stroke:rgb(29.803923%,50.588238%,45.882353%);stroke-opacity:1;stroke-miterlimit:2.613;" d="M 93.369198 75.885626 C 89.095436 77.635489 86.568525 82.297775 86.375769 82.686299 L 85.987245 83.267579 L 86.764293 83.463347 C 86.764293 83.463347 90.646519 84.044626 95.504573 82.102007 C 100.555382 79.966632 101.525186 75.888638 101.717942 75.888638 L 101.717942 75.304347 L 101.136662 75.111591 C 101.136662 75.108579 97.639948 74.331531 93.369198 75.885626 Z M 93.75471 76.858442 C 96.670144 75.69287 99.389811 75.885626 100.555382 76.081394 C 99.971091 77.051198 98.612763 79.578109 95.116049 81.132204 C 91.815102 82.490531 88.899668 82.490531 87.541341 82.490531 C 88.511144 81.132204 90.646519 78.024013 93.75471 76.858442 Z M 93.75471 76.858442 " transform="matrix(1.296977,0,0,1.296977,0,0)" />
    <path style="fill-rule:evenodd;fill:rgb(29.803923%,50.588238%,45.882353%);fill-opacity:1;stroke-width:1.079;stroke-linecap:round;stroke-linejoin:round;stroke:rgb(29.803923%,50.588238%,45.882353%);stroke-opacity:1;stroke-miterlimit:2.613;" d="M 102.106466 67.729638 C 97.832704 69.47649 95.116049 74.138775 94.920281 74.331531 L 94.531757 74.915823 L 95.308805 75.108579 C 95.501561 75.108579 99.191031 75.69287 104.049085 73.750251 C 108.904126 71.614876 110.265466 67.922394 110.265466 67.729638 L 110.458222 67.145347 L 109.876942 67.145347 C 109.684186 67.145347 106.380227 66.175543 102.106466 67.729638 Z M 102.494989 68.699442 C 105.410424 67.533871 107.934323 67.729638 109.099894 67.922394 C 108.518614 68.89521 107.160287 71.226353 103.660561 72.777436 C 100.359614 74.138775 97.639948 74.331531 96.28162 74.138775 C 97.058668 72.780448 99.582567 69.865013 102.494989 68.699442 Z M 102.494989 68.699442 " transform="matrix(1.296977,0,0,1.296977,0,0)" />
    <path style="fill-rule:evenodd;fill:rgb(29.803923%,50.588238%,45.882353%);fill-opacity:1;stroke-width:1.079;stroke-linecap:round;stroke-linejoin:round;stroke:rgb(29.803923%,50.588238%,45.882353%);stroke-opacity:1;stroke-miterlimit:2.613;" d="M 111.235269 60.15493 C 107.157275 61.901781 104.049085 66.564067 103.856329 66.756823 L 103.272037 67.341115 L 104.049085 67.533871 C 104.241841 67.533871 108.127079 67.925406 112.985132 65.979775 C 118.035942 64.040168 119.201513 60.543454 119.201513 60.15493 L 119.394269 59.766406 L 118.812989 59.766406 C 118.812989 59.570638 115.704799 58.600835 111.235269 60.15493 Z M 111.816549 61.124734 C 114.539227 59.959162 116.87037 60.15493 118.035942 60.543454 C 117.45165 61.513257 116.093323 63.648632 112.596608 65.009972 C 109.295662 66.368299 106.575995 66.564067 105.214656 66.564067 C 106.187471 65.202728 108.71137 62.290305 111.816549 61.124734 Z M 111.816549 61.124734 " transform="matrix(1.296977,0,0,1.296977,0,0)" />
    <path style="fill-rule:evenodd;fill:rgb(29.803923%,50.588238%,45.882353%);fill-opacity:1;stroke-width:1.079;stroke-linecap:round;stroke-linejoin:round;stroke:rgb(29.803923%,50.588238%,45.882353%);stroke-opacity:1;stroke-miterlimit:2.613;" d="M 120.752596 53.550025 C 116.481846 55.104121 112.985132 59.766406 112.792376 59.959162 L 112.400841 60.543454 L 113.177888 60.73621 C 113.370644 60.73621 117.255882 60.928966 122.113936 59.182115 C 126.968977 57.04674 128.327305 53.742781 128.327305 53.550025 L 128.523073 53.161502 L 127.941793 52.965734 C 127.941793 52.965734 125.026358 51.99593 120.752596 53.550025 Z M 121.144132 54.327073 C 123.860787 53.357269 126.194942 53.550025 127.164745 53.742781 C 126.583465 54.715597 125.026358 56.850972 121.529644 58.212311 C 118.424465 59.377882 115.704799 59.766406 114.34346 59.766406 C 115.316275 58.405067 118.035942 55.492644 121.144132 54.327073 Z M 55.881168 111.431037 C 55.688412 111.623793 52.772978 115.509031 52.580222 119.975549 C 52.191698 124.637835 55.881168 128.134549 56.073924 128.330317 L 56.46546 128.71884 L 56.853984 128.330317 C 56.853984 128.134549 59.959162 125.417894 60.15493 119.975549 C 60.347686 114.731983 56.658216 111.431037 56.46546 111.431037 L 56.076936 111.042513 Z M 53.357269 120.559841 C 53.357269 120.367085 53.550025 120.171317 53.550025 119.975549 C 53.742781 116.674602 55.492644 113.569424 56.269692 112.596608 C 57.239496 113.569424 59.182115 115.897555 59.182115 119.587025 L 59.182115 119.975549 C 58.989359 123.860787 57.239496 126.387698 56.46546 127.164745 C 55.688412 126.387698 53.357269 123.668031 53.357269 120.559841 Z M 53.357269 120.559841 " transform="matrix(1.296977,0,0,1.296977,0,0)" />
    <path style="fill-rule:evenodd;fill:rgb(29.803923%,50.588238%,45.882353%);fill-opacity:1;stroke-width:1.079;stroke-linecap:round;stroke-linejoin:round;stroke:rgb(29.803923%,50.588238%,45.882353%);stroke-opacity:1;stroke-miterlimit:2.613;" d="M 61.709025 101.33243 C 61.513257 101.33243 59.182115 104.052096 58.212311 107.738555 C 58.212311 108.322847 58.016543 108.907138 58.016543 109.488418 C 57.435263 113.957948 60.543454 117.647418 60.739222 117.647418 L 61.124734 118.228698 L 61.516269 117.840174 C 61.516269 117.647418 64.621448 115.120507 65.20574 109.876942 C 65.982787 104.633376 62.678829 101.33243 62.486073 101.33243 L 62.097549 100.940894 Z M 58.793591 110.458222 C 58.793591 110.265466 58.793591 109.876942 58.989359 109.488418 C 58.989359 108.907138 58.989359 108.515603 59.182115 108.130091 C 59.959162 105.214656 61.320501 103.275049 62.094537 102.494989 C 62.871585 103.272037 64.42568 105.410424 64.42568 108.71137 C 64.42568 108.907138 64.42568 109.295662 64.232924 109.684186 C 63.8444 113.569424 61.901781 115.897555 61.124734 116.674602 C 60.543454 115.704799 58.793591 113.373656 58.793591 110.458222 Z M 58.793591 110.458222 " transform="matrix(1.296977,0,0,1.296977,0,0)" />
    <path style="fill-rule:evenodd;fill:rgb(29.803923%,50.588238%,45.882353%);fill-opacity:1;stroke-width:1.079;stroke-linecap:round;stroke-linejoin:round;stroke:rgb(29.803923%,50.588238%,45.882353%);stroke-opacity:1;stroke-miterlimit:2.613;" d="M 68.310918 91.812091 C 68.310918 91.812091 65.787019 94.143234 64.428692 97.832704 C 64.428692 98.416995 64.232924 98.805519 64.040168 99.389811 C 63.26312 103.660561 65.979775 107.545799 66.175543 107.741567 L 66.371311 108.130091 L 66.756823 107.937335 C 66.952591 107.741567 70.060781 105.214656 71.030585 100.359614 C 72.196156 95.311817 69.283734 91.815102 69.087966 91.815102 L 68.699442 91.423567 Z M 64.814204 101.136662 C 64.814204 100.555382 65.009972 100.166858 65.009972 99.582567 C 65.202728 99.194043 65.202728 98.609751 65.398496 98.224239 C 66.100248 96.254514 67.226666 94.462486 68.699442 92.977662 C 69.283734 93.75471 70.253537 95.504573 70.253537 98.224239 C 70.253537 98.805519 70.253537 99.389811 70.060781 100.166858 C 69.47649 103.660561 67.533871 105.798948 66.756823 106.768751 C 66.175543 105.798948 64.814204 103.660561 64.814204 101.136662 Z M 64.814204 101.136662 " transform="matrix(1.296977,0,0,1.296977,0,0)" />
    <path style="fill-rule:evenodd;fill:rgb(29.803923%,50.588238%,45.882353%);fill-opacity:1;stroke-width:1.079;stroke-linecap:round;stroke-linejoin:round;stroke:rgb(29.803923%,50.588238%,45.882353%);stroke-opacity:1;stroke-miterlimit:2.613;" d="M 75.69287 82.879055 C 75.497103 82.879055 72.973204 85.01443 71.419109 88.511144 C 71.226353 89.095436 71.030585 89.48396 70.834817 90.065239 C 69.865013 94.339001 72.0034 98.416995 72.196156 98.416995 L 72.388912 99.001287 L 72.973204 98.609751 C 72.973204 98.609751 76.27415 96.28162 77.439722 91.423567 C 78.993817 86.375769 76.469918 83.071811 76.27415 82.879055 L 75.885626 82.490531 Z M 71.614876 92.396382 C 71.614876 91.812091 71.614876 91.038055 71.807632 90.261007 C 72.0034 89.872483 72.196156 89.288192 72.391924 89.095436 C 73.361728 86.375769 75.111591 84.625906 75.888638 83.848859 C 76.277162 84.625906 77.05421 86.180001 77.05421 88.318388 C 77.05421 89.288192 76.861454 90.065239 76.665686 91.035043 C 75.69287 94.531757 73.750251 96.474376 72.780448 97.44418 C 72.388912 96.474376 71.614876 94.727525 71.614876 92.396382 Z M 71.614876 92.396382 " transform="matrix(1.296977,0,0,1.296977,0,0)" />
    <path style="fill-rule:evenodd;fill:rgb(29.803923%,50.588238%,45.882353%);fill-opacity:1;stroke-width:1.079;stroke-linecap:round;stroke-linejoin:round;stroke:rgb(29.803923%,50.588238%,45.882353%);stroke-opacity:1;stroke-miterlimit:2.613;" d="M 83.460335 74.527299 C 83.460335 74.527299 80.740668 76.27415 78.801061 79.963621 C 78.801061 80.355156 78.605293 80.740668 78.216769 81.32496 C 77.051198 85.402954 78.605293 89.48396 78.801061 89.676716 L 78.993817 90.261007 L 79.578109 89.872483 C 79.578109 89.872483 82.879055 87.734097 84.625906 82.879055 C 86.568525 78.216769 84.237382 74.720055 84.237382 74.720055 L 84.044626 74.138775 Z M 78.801061 84.625906 C 78.801061 83.656103 78.993817 82.686299 79.382341 81.713484 C 79.382341 81.129192 79.578109 80.740668 79.770865 80.355156 C 81.132204 77.828245 82.879055 76.27415 83.656103 75.69287 C 84.044626 76.27415 84.43315 77.439722 84.43315 79.189585 C 84.43315 80.159388 84.237382 81.32496 83.656103 82.686299 C 82.815807 85.050572 81.337007 87.134746 79.382341 88.706912 C 79.186573 87.929864 78.801061 86.568525 78.801061 84.625906 Z M 78.801061 84.625906 " transform="matrix(1.296977,0,0,1.296977,0,0)" />
    <path style="fill-rule:evenodd;fill:rgb(29.803923%,50.588238%,45.882353%);fill-opacity:1;stroke-width:1.079;stroke-linecap:round;stroke-linejoin:round;stroke:rgb(29.803923%,50.588238%,45.882353%);stroke-opacity:1;stroke-miterlimit:2.613;" d="M 92.007858 66.756823 C 91.815102 66.952591 89.095436 68.118162 86.957049 71.807632 C 86.764293 72.391924 86.568525 72.780448 86.375769 73.361728 C 84.821674 77.246966 85.791478 81.32496 85.987245 81.520728 L 85.987245 82.297775 L 86.764293 81.909251 C 86.764293 81.909251 90.065239 79.770865 92.200614 75.304347 C 94.531757 70.642061 92.784906 67.145347 92.589138 66.949579 L 92.396382 66.564067 Z M 86.568525 78.024013 C 86.568525 76.662674 86.764293 75.108579 87.345573 73.557495 C 87.541341 73.168972 87.541341 72.780448 87.929864 72.391924 C 89.288192 69.865013 91.230811 68.506686 92.007858 67.925406 C 92.200614 68.506686 92.396382 69.283734 92.396382 70.449305 C 92.396382 71.807632 92.200614 73.168972 91.423567 74.915823 C 89.872483 78.024013 87.734097 79.770865 86.764293 80.547912 C 86.568525 79.963621 86.568525 78.993817 86.568525 78.024013 Z M 86.568525 78.024013 " transform="matrix(1.296977,0,0,1.296977,0,0)" />
    <path style="fill-rule:evenodd;fill:rgb(29.803923%,50.588238%,45.882353%);fill-opacity:1;stroke-width:1.079;stroke-linecap:round;stroke-linejoin:round;stroke:rgb(29.803923%,50.588238%,45.882353%);stroke-opacity:1;stroke-miterlimit:2.613;" d="M 100.943906 59.766406 C 100.748138 59.766406 97.832704 60.73621 95.504573 64.42568 C 95.308805 64.814204 95.116049 65.202728 94.727525 65.787019 C 93.17343 69.47649 93.561954 73.943007 93.561954 74.138775 L 93.75471 74.720055 L 94.339001 74.331531 C 94.531757 74.331531 97.832704 72.388912 100.555382 68.118162 C 103.076269 63.648632 101.717942 60.151918 101.525186 59.959162 L 101.33243 59.374871 Z M 94.531757 72.391924 C 94.531757 70.837829 94.727525 68.310918 95.700341 66.175543 C 95.893097 65.591252 96.085853 65.398496 96.28162 65.009972 C 98.031483 62.486073 99.971091 61.320501 100.748138 60.73621 C 100.943906 61.320501 100.943906 61.709025 100.943906 62.486073 C 100.943906 63.8444 100.748138 65.591252 99.582567 67.533871 C 97.835716 70.642061 95.700341 72.391924 94.534769 73.168972 Z M 94.531757 72.391924 " transform="matrix(1.296977,0,0,1.296977,0,0)" />
    <path style="fill-rule:evenodd;fill:rgb(29.803923%,50.588238%,45.882353%);fill-opacity:1;stroke-width:1.079;stroke-linecap:round;stroke-linejoin:round;stroke:rgb(29.803923%,50.588238%,45.882353%);stroke-opacity:1;stroke-miterlimit:2.613;" d="M 110.458222 53.161502 C 110.265466 53.161502 107.353043 53.938549 104.633376 57.628019 C 104.244852 57.823787 104.052096 58.405067 103.856329 58.793591 C 101.91371 62.486073 101.717942 66.952591 101.717942 67.148359 L 101.717942 67.925406 L 102.494989 67.533871 C 102.690757 67.341115 106.187471 65.787019 109.099894 61.513257 C 112.015329 57.239496 111.042513 53.550025 111.042513 53.550025 L 110.846745 52.968746 Z M 104.633376 59.377882 C 104.826132 58.989359 105.214656 58.405067 105.410424 58.212311 C 107.157275 55.688412 109.295662 54.715597 110.07271 54.327073 C 110.265466 54.519829 110.265466 54.715597 110.265466 55.104121 C 110.265466 56.46546 109.876942 58.600835 108.127079 60.931978 C 106.187471 63.8444 104.049085 65.398496 102.883513 66.175543 C 103.079281 64.814204 103.272037 61.709025 104.633376 59.377882 Z M 104.633376 59.377882 " transform="matrix(1.296977,0,0,1.296977,0,0)" />
    <path style="fill-rule:evenodd;fill:rgb(29.803923%,50.588238%,45.882353%);fill-opacity:1;stroke-width:1.079;stroke-linecap:round;stroke-linejoin:round;stroke:rgb(29.803923%,50.588238%,45.882353%);stroke-opacity:1;stroke-miterlimit:2.613;" d="M 120.364073 47.140888 C 119.975549 47.140888 117.063126 47.72518 114.150704 51.218882 C 111.042513 54.715597 110.458222 60.543454 110.458222 60.739222 L 110.265466 61.516269 L 111.042513 61.320501 C 111.235269 61.127745 114.731983 59.57365 118.035942 55.492644 C 121.336888 51.41465 120.752596 47.72518 120.752596 47.532424 L 120.752596 47.1439 L 120.364073 47.1439 Z M 114.927751 51.99593 C 116.87037 49.472031 119.005745 48.694984 119.782793 48.30646 C 119.782793 49.472031 119.587025 51.99593 117.258894 54.911365 C 115.120507 57.631031 112.792376 59.185126 111.623793 59.962174 C 111.816549 58.212311 112.792376 54.327073 114.927751 51.99593 Z M 114.927751 51.99593 " transform="matrix(1.296977,0,0,1.296977,0,0)" />
    <path style="fill-rule:evenodd;fill:rgb(29.803923%,50.588238%,45.882353%);fill-opacity:1;stroke-width:1.079;stroke-linecap:round;stroke-linejoin:round;stroke:rgb(29.803923%,50.588238%,45.882353%);stroke-opacity:1;stroke-miterlimit:2.613;" d="M 25.967847 96.28162 C 25.967847 120.364073 38.981889 143.476721 59.959162 156.686531 L 60.73621 157.075055 L 61.320501 156.298007 C 61.513257 156.105251 61.513257 155.909483 61.513257 155.716727 C 61.513257 155.328203 61.124734 154.743912 60.928966 154.551156 L 59.763394 153.385584 C 55.296877 148.530543 54.327073 143.868257 54.327073 140.371543 C 54.327073 136.293549 55.6854 133.766638 55.881168 133.573882 L 56.073924 132.796834 L 55.6854 132.215555 C 46.945121 122.309704 42.282835 109.876942 42.282835 96.28162 C 42.282835 66.368299 66.368299 42.090079 96.474376 42.090079 C 104.826132 42.090079 112.789364 44.032698 120.171317 47.529412 L 120.948364 47.917936 L 131.824019 35.488186 L 130.658448 34.711138 C 120.171317 28.988695 108.419225 25.982906 96.474376 25.970859 C 57.628019 25.967847 25.967847 57.628019 25.967847 96.28162 Z M 28.29899 96.28162 C 28.29899 58.793591 58.793591 28.29899 96.474376 28.29899 C 107.545799 28.29899 118.424465 31.018656 128.327305 36.069466 C 126.776221 37.816317 121.14112 44.228466 120.364073 45.198269 C 112.792376 41.701555 104.826132 39.758936 96.474376 39.758936 C 65.202728 39.758936 39.954704 65.202728 39.954704 96.28162 C 39.954704 110.265466 44.61699 123.083739 53.550025 133.185358 C 52.965734 134.347918 51.99593 136.874829 51.99593 140.371543 C 51.99593 143.091209 52.772978 146.587924 54.715597 150.084638 C 38.204841 137.070596 28.29899 117.063126 28.29899 96.28162 Z M 28.29899 96.28162 " transform="matrix(1.296977,0,0,1.296977,0,0)" />
    <path style="fill-rule:evenodd;fill:rgb(29.803923%,50.588238%,45.882353%);fill-opacity:1;stroke-width:1.079;stroke-linecap:round;stroke-linejoin:round;stroke:rgb(29.803923%,50.588238%,45.882353%);stroke-opacity:1;stroke-miterlimit:2.613;" d="M 121.144132 45.586793 C 113.488105 41.743721 105.039971 39.746889 96.477388 39.758936 C 65.20574 39.758936 39.954704 65.202728 39.954704 96.28162 C 39.954704 110.458222 44.809746 123.472263 53.938549 133.766638 L 54.911365 134.739454 L 59.185126 128.330317 L 58.989359 127.941793 L 58.016543 127.941793 C 58.212311 127.746025 58.212311 127.357501 58.408079 127.164745 C 58.016543 126.776221 57.631031 126.387698 57.435263 125.999174 C 57.04674 126.583465 56.658216 126.968977 56.46546 127.164745 C 55.688412 126.387698 53.357269 123.668031 53.357269 120.559841 C 53.357269 120.364073 53.553037 120.364073 53.553037 120.171317 C 49.472031 113.177888 47.336656 105.214656 47.336656 96.278609 C 47.336656 69.280722 69.283734 47.333644 96.477388 47.333644 C 103.082293 47.333644 109.49143 48.691972 115.512043 51.218882 C 116.096334 50.441835 116.677614 50.053311 117.454662 49.664787 C 110.849757 46.556597 103.85934 45.002502 96.477388 45.002502 C 68.121174 45.002502 45.201281 68.11515 45.201281 96.278609 C 45.201281 108.708359 48.890751 119.391257 56.46546 128.520061 C 56.076936 129.104352 55.299888 130.077168 54.718609 131.046971 C 46.559609 121.526632 42.285847 109.485406 42.285847 96.278609 C 42.285847 66.365287 66.371311 42.087067 96.477388 42.087067 C 104.244852 42.087067 112.015329 43.83693 119.201513 47.137877 C 118.812989 47.722168 118.620233 48.303448 118.228698 49.080496 C 119.005745 48.691972 119.590037 48.303448 119.785805 48.303448 C 119.785805 49.080496 119.785805 50.827347 118.812989 52.769966 L 119.005745 52.769966 L 122.113936 45.972305 Z M 120.559841 34.515371 L 115.120507 41.313031 C 115.704799 41.505787 116.093323 41.701555 116.677614 41.897323 L 122.113936 35.09665 C 121.529644 34.903894 121.144132 34.708127 120.559841 34.515371 Z M 110.07271 31.40718 L 106.961507 38.981889 C 107.353043 39.177656 107.937335 39.370412 108.518614 39.370412 L 111.623793 31.602948 C 111.042513 31.602948 110.458222 31.40718 110.07271 31.40718 Z M 97.44418 29.853085 L 96.670144 38.204841 L 98.221228 38.204841 L 99.001287 30.048853 C 98.416995 29.853085 98.028472 29.853085 97.44418 29.853085 Z M 85.210198 30.8259 L 86.764293 38.981889 C 87.345573 38.789133 87.734097 38.789133 88.318388 38.789133 L 86.764293 30.630133 C 86.180001 30.630133 85.791478 30.8259 85.210198 30.8259 Z M 85.210198 30.8259 " transform="matrix(1.296977,0,0,1.296977,0,0)" />
    <path style="fill-rule:evenodd;fill:rgb(29.803923%,50.588238%,45.882353%);fill-opacity:1;stroke-width:1.079;stroke-linecap:round;stroke-linejoin:round;stroke:rgb(29.803923%,50.588238%,45.882353%);stroke-opacity:1;stroke-miterlimit:2.613;" d="M 73.361728 33.934091 L 77.051198 41.508799 C 77.439722 41.313031 78.024013 41.120275 78.409525 40.924508 L 74.720055 33.542555 C 74.331531 33.738323 73.750251 33.934091 73.361728 33.934091 Z M 62.094537 39.56618 L 67.533871 45.779549 C 67.922394 45.586793 68.503674 45.198269 68.89521 45.002502 L 63.260109 38.789133 C 62.871585 38.981889 62.486073 39.177656 62.094537 39.56618 Z M 51.803174 47.140888 L 58.793591 51.99593 C 59.182115 51.607406 59.570638 51.41465 59.959162 51.026127 L 52.968746 46.171085 C 52.580222 46.556597 52.188686 46.752365 51.803174 47.140888 Z M 43.062894 56.850972 L 51.218882 59.959162 C 51.41465 59.374871 51.803174 58.989359 52.191698 58.600835 L 44.032698 55.492644 C 43.644174 55.881168 43.451418 56.269692 43.062894 56.850972 Z M 36.262222 67.922394 L 45.002502 69.087966 C 45.391025 68.699442 45.586793 68.118162 45.779549 67.729638 L 37.042281 66.564067 C 36.846513 66.952591 36.650746 67.341115 36.262222 67.922394 Z M 31.991472 80.159388 L 40.731752 79.382341 C 40.924508 78.801061 41.120275 78.216769 41.120275 77.828245 L 32.379996 78.605293 C 32.184228 79.186573 31.991472 79.770865 31.991472 80.159388 Z M 30.048853 92.977662 L 38.593365 90.065239 C 38.593365 89.48396 38.593365 89.095436 38.789133 88.511144 L 30.048853 91.423567 Z M 30.630133 105.991704 L 38.400609 100.943906 L 38.400609 99.194043 L 30.437377 104.437608 C 30.437377 105.0219 30.630133 105.60318 30.630133 105.991704 Z M 33.934091 118.617221 L 40.14746 111.819561 C 40.14746 111.235269 39.954704 110.653989 39.758936 110.07271 L 33.542555 117.063126 C 33.542555 117.647418 33.738323 118.228698 33.934091 118.617221 Z M 39.954704 130.854215 L 44.228466 122.50246 C 44.032698 121.92118 43.83693 121.336888 43.451418 120.752596 L 38.981889 129.30012 C 39.177656 129.884412 39.56618 130.269924 39.954704 130.854215 Z M 47.333644 140.955834 L 49.664787 131.242739 C 49.472031 130.661459 48.88774 130.077168 48.694984 129.688644 L 46.168073 139.594495 C 46.556597 139.983019 46.945121 140.567311 47.333644 140.955834 Z M 119.587025 53.161502 C 119.782793 53.550025 119.975549 53.550025 120.171317 53.745793 C 120.364073 53.550025 120.559841 53.550025 120.752596 53.550025 C 120.948364 53.357269 121.144132 53.357269 121.336888 53.161502 C 120.752596 52.968746 120.364073 52.580222 119.975549 52.191698 C 119.782793 52.580222 119.782793 52.965734 119.587025 53.161502 Z M 119.587025 53.161502 " transform="matrix(1.296977,0,0,1.296977,0,0)" />
  </g>
</svg>